<svg xmlns="http://www.w3.org/2000/svg" viewBox="-1 -1 89 9" shape-rendering="crispEdges">
  <rect x="1" y="0" width="1" height="1" fill="#D97757"/>
  <rect x="2" y="0" width="1" height="1" fill="#D97757"/>
  <rect x="3" y="0" width="1" height="1" fill="#D97757"/>
  <rect x="0" y="1" width="1" height="1" fill="#D97757"/>
  <rect x="4" y="1" width="1" height="1" fill="#D97757"/>
  <rect x="0" y="2" width="1" height="1" fill="#D97757"/>
  <rect x="0" y="3" width="1" height="1" fill="#D97757"/>
  <rect x="0" y="4" width="1" height="1" fill="#D97757"/>
  <rect x="0" y="5" width="1" height="1" fill="#D97757"/>
  <rect x="4" y="5" width="1" height="1" fill="#D97757"/>
  <rect x="1" y="6" width="1" height="1" fill="#D97757"/>
  <rect x="2" y="6" width="1" height="1" fill="#D97757"/>
  <rect x="3" y="6" width="1" height="1" fill="#D97757"/>
  <rect x="6" y="0" width="1" height="1" fill="#D97757"/>
  <rect x="6" y="1" width="1" height="1" fill="#D97757"/>
  <rect x="6" y="2" width="1" height="1" fill="#D97757"/>
  <rect x="6" y="3" width="1" height="1" fill="#D97757"/>
  <rect x="6" y="4" width="1" height="1" fill="#D97757"/>
  <rect x="6" y="5" width="1" height="1" fill="#D97757"/>
  <rect x="6" y="6" width="1" height="1" fill="#D97757"/>
  <rect x="7" y="6" width="1" height="1" fill="#D97757"/>
  <rect x="8" y="6" width="1" height="1" fill="#D97757"/>
  <rect x="9" y="6" width="1" height="1" fill="#D97757"/>
  <rect x="10" y="6" width="1" height="1" fill="#D97757"/>
  <rect x="13" y="0" width="1" height="1" fill="#D97757"/>
  <rect x="14" y="0" width="1" height="1" fill="#D97757"/>
  <rect x="15" y="0" width="1" height="1" fill="#D97757"/>
  <rect x="12" y="1" width="1" height="1" fill="#D97757"/>
  <rect x="16" y="1" width="1" height="1" fill="#D97757"/>
  <rect x="12" y="2" width="1" height="1" fill="#D97757"/>
  <rect x="16" y="2" width="1" height="1" fill="#D97757"/>
  <rect x="12" y="3" width="1" height="1" fill="#D97757"/>
  <rect x="13" y="3" width="1" height="1" fill="#D97757"/>
  <rect x="14" y="3" width="1" height="1" fill="#D97757"/>
  <rect x="15" y="3" width="1" height="1" fill="#D97757"/>
  <rect x="16" y="3" width="1" height="1" fill="#D97757"/>
  <rect x="12" y="4" width="1" height="1" fill="#D97757"/>
  <rect x="16" y="4" width="1" height="1" fill="#D97757"/>
  <rect x="12" y="5" width="1" height="1" fill="#D97757"/>
  <rect x="16" y="5" width="1" height="1" fill="#D97757"/>
  <rect x="12" y="6" width="1" height="1" fill="#D97757"/>
  <rect x="16" y="6" width="1" height="1" fill="#D97757"/>
  <rect x="18" y="0" width="1" height="1" fill="#D97757"/>
  <rect x="22" y="0" width="1" height="1" fill="#D97757"/>
  <rect x="18" y="1" width="1" height="1" fill="#D97757"/>
  <rect x="22" y="1" width="1" height="1" fill="#D97757"/>
  <rect x="18" y="2" width="1" height="1" fill="#D97757"/>
  <rect x="22" y="2" width="1" height="1" fill="#D97757"/>
  <rect x="18" y="3" width="1" height="1" fill="#D97757"/>
  <rect x="22" y="3" width="1" height="1" fill="#D97757"/>
  <rect x="18" y="4" width="1" height="1" fill="#D97757"/>
  <rect x="22" y="4" width="1" height="1" fill="#D97757"/>
  <rect x="18" y="5" width="1" height="1" fill="#D97757"/>
  <rect x="22" y="5" width="1" height="1" fill="#D97757"/>
  <rect x="19" y="6" width="1" height="1" fill="#D97757"/>
  <rect x="20" y="6" width="1" height="1" fill="#D97757"/>
  <rect x="21" y="6" width="1" height="1" fill="#D97757"/>
  <rect x="24" y="0" width="1" height="1" fill="#D97757"/>
  <rect x="25" y="0" width="1" height="1" fill="#D97757"/>
  <rect x="26" y="0" width="1" height="1" fill="#D97757"/>
  <rect x="27" y="0" width="1" height="1" fill="#D97757"/>
  <rect x="24" y="1" width="1" height="1" fill="#D97757"/>
  <rect x="28" y="1" width="1" height="1" fill="#D97757"/>
  <rect x="24" y="2" width="1" height="1" fill="#D97757"/>
  <rect x="28" y="2" width="1" height="1" fill="#D97757"/>
  <rect x="24" y="3" width="1" height="1" fill="#D97757"/>
  <rect x="28" y="3" width="1" height="1" fill="#D97757"/>
  <rect x="24" y="4" width="1" height="1" fill="#D97757"/>
  <rect x="28" y="4" width="1" height="1" fill="#D97757"/>
  <rect x="24" y="5" width="1" height="1" fill="#D97757"/>
  <rect x="28" y="5" width="1" height="1" fill="#D97757"/>
  <rect x="24" y="6" width="1" height="1" fill="#D97757"/>
  <rect x="25" y="6" width="1" height="1" fill="#D97757"/>
  <rect x="26" y="6" width="1" height="1" fill="#D97757"/>
  <rect x="27" y="6" width="1" height="1" fill="#D97757"/>
  <rect x="30" y="0" width="1" height="1" fill="#D97757"/>
  <rect x="31" y="0" width="1" height="1" fill="#D97757"/>
  <rect x="32" y="0" width="1" height="1" fill="#D97757"/>
  <rect x="33" y="0" width="1" height="1" fill="#D97757"/>
  <rect x="34" y="0" width="1" height="1" fill="#D97757"/>
  <rect x="32" y="1" width="1" height="1" fill="#D97757"/>
  <rect x="32" y="2" width="1" height="1" fill="#D97757"/>
  <rect x="32" y="3" width="1" height="1" fill="#D97757"/>
  <rect x="32" y="4" width="1" height="1" fill="#D97757"/>
  <rect x="32" y="5" width="1" height="1" fill="#D97757"/>
  <rect x="30" y="6" width="1" height="1" fill="#D97757"/>
  <rect x="31" y="6" width="1" height="1" fill="#D97757"/>
  <rect x="32" y="6" width="1" height="1" fill="#D97757"/>
  <rect x="33" y="6" width="1" height="1" fill="#D97757"/>
  <rect x="34" y="6" width="1" height="1" fill="#D97757"/>
  <rect x="37" y="0" width="1" height="1" fill="#D97757"/>
  <rect x="38" y="0" width="1" height="1" fill="#D97757"/>
  <rect x="39" y="0" width="1" height="1" fill="#D97757"/>
  <rect x="36" y="1" width="1" height="1" fill="#D97757"/>
  <rect x="40" y="1" width="1" height="1" fill="#D97757"/>
  <rect x="36" y="2" width="1" height="1" fill="#D97757"/>
  <rect x="40" y="2" width="1" height="1" fill="#D97757"/>
  <rect x="36" y="3" width="1" height="1" fill="#D97757"/>
  <rect x="40" y="3" width="1" height="1" fill="#D97757"/>
  <rect x="36" y="4" width="1" height="1" fill="#D97757"/>
  <rect x="40" y="4" width="1" height="1" fill="#D97757"/>
  <rect x="36" y="5" width="1" height="1" fill="#D97757"/>
  <rect x="40" y="5" width="1" height="1" fill="#D97757"/>
  <rect x="37" y="6" width="1" height="1" fill="#D97757"/>
  <rect x="38" y="6" width="1" height="1" fill="#D97757"/>
  <rect x="39" y="6" width="1" height="1" fill="#D97757"/>
  <rect x="47" y="0" width="1" height="1" fill="#D97757"/>
  <rect x="48" y="0" width="1" height="1" fill="#D97757"/>
  <rect x="49" y="0" width="1" height="1" fill="#D97757"/>
  <rect x="46" y="1" width="1" height="1" fill="#D97757"/>
  <rect x="50" y="1" width="1" height="1" fill="#D97757"/>
  <rect x="46" y="2" width="1" height="1" fill="#D97757"/>
  <rect x="46" y="3" width="1" height="1" fill="#D97757"/>
  <rect x="46" y="4" width="1" height="1" fill="#D97757"/>
  <rect x="46" y="5" width="1" height="1" fill="#D97757"/>
  <rect x="50" y="5" width="1" height="1" fill="#D97757"/>
  <rect x="47" y="6" width="1" height="1" fill="#D97757"/>
  <rect x="48" y="6" width="1" height="1" fill="#D97757"/>
  <rect x="49" y="6" width="1" height="1" fill="#D97757"/>
  <rect x="53" y="0" width="1" height="1" fill="#D97757"/>
  <rect x="54" y="0" width="1" height="1" fill="#D97757"/>
  <rect x="55" y="0" width="1" height="1" fill="#D97757"/>
  <rect x="52" y="1" width="1" height="1" fill="#D97757"/>
  <rect x="56" y="1" width="1" height="1" fill="#D97757"/>
  <rect x="52" y="2" width="1" height="1" fill="#D97757"/>
  <rect x="56" y="2" width="1" height="1" fill="#D97757"/>
  <rect x="52" y="3" width="1" height="1" fill="#D97757"/>
  <rect x="56" y="3" width="1" height="1" fill="#D97757"/>
  <rect x="52" y="4" width="1" height="1" fill="#D97757"/>
  <rect x="56" y="4" width="1" height="1" fill="#D97757"/>
  <rect x="52" y="5" width="1" height="1" fill="#D97757"/>
  <rect x="56" y="5" width="1" height="1" fill="#D97757"/>
  <rect x="53" y="6" width="1" height="1" fill="#D97757"/>
  <rect x="54" y="6" width="1" height="1" fill="#D97757"/>
  <rect x="55" y="6" width="1" height="1" fill="#D97757"/>
  <rect x="58" y="0" width="1" height="1" fill="#D97757"/>
  <rect x="62" y="0" width="1" height="1" fill="#D97757"/>
  <rect x="58" y="1" width="1" height="1" fill="#D97757"/>
  <rect x="59" y="1" width="1" height="1" fill="#D97757"/>
  <rect x="62" y="1" width="1" height="1" fill="#D97757"/>
  <rect x="58" y="2" width="1" height="1" fill="#D97757"/>
  <rect x="60" y="2" width="1" height="1" fill="#D97757"/>
  <rect x="62" y="2" width="1" height="1" fill="#D97757"/>
  <rect x="58" y="3" width="1" height="1" fill="#D97757"/>
  <rect x="60" y="3" width="1" height="1" fill="#D97757"/>
  <rect x="62" y="3" width="1" height="1" fill="#D97757"/>
  <rect x="58" y="4" width="1" height="1" fill="#D97757"/>
  <rect x="60" y="4" width="1" height="1" fill="#D97757"/>
  <rect x="62" y="4" width="1" height="1" fill="#D97757"/>
  <rect x="58" y="5" width="1" height="1" fill="#D97757"/>
  <rect x="61" y="5" width="1" height="1" fill="#D97757"/>
  <rect x="62" y="5" width="1" height="1" fill="#D97757"/>
  <rect x="58" y="6" width="1" height="1" fill="#D97757"/>
  <rect x="62" y="6" width="1" height="1" fill="#D97757"/>
  <rect x="64" y="0" width="1" height="1" fill="#D97757"/>
  <rect x="65" y="0" width="1" height="1" fill="#D97757"/>
  <rect x="66" y="0" width="1" height="1" fill="#D97757"/>
  <rect x="67" y="0" width="1" height="1" fill="#D97757"/>
  <rect x="68" y="0" width="1" height="1" fill="#D97757"/>
  <rect x="66" y="1" width="1" height="1" fill="#D97757"/>
  <rect x="66" y="2" width="1" height="1" fill="#D97757"/>
  <rect x="66" y="3" width="1" height="1" fill="#D97757"/>
  <rect x="66" y="4" width="1" height="1" fill="#D97757"/>
  <rect x="66" y="5" width="1" height="1" fill="#D97757"/>
  <rect x="66" y="6" width="1" height="1" fill="#D97757"/>
  <rect x="70" y="0" width="1" height="1" fill="#D97757"/>
  <rect x="71" y="0" width="1" height="1" fill="#D97757"/>
  <rect x="72" y="0" width="1" height="1" fill="#D97757"/>
  <rect x="73" y="0" width="1" height="1" fill="#D97757"/>
  <rect x="70" y="1" width="1" height="1" fill="#D97757"/>
  <rect x="74" y="1" width="1" height="1" fill="#D97757"/>
  <rect x="70" y="2" width="1" height="1" fill="#D97757"/>
  <rect x="74" y="2" width="1" height="1" fill="#D97757"/>
  <rect x="70" y="3" width="1" height="1" fill="#D97757"/>
  <rect x="71" y="3" width="1" height="1" fill="#D97757"/>
  <rect x="72" y="3" width="1" height="1" fill="#D97757"/>
  <rect x="73" y="3" width="1" height="1" fill="#D97757"/>
  <rect x="70" y="4" width="1" height="1" fill="#D97757"/>
  <rect x="72" y="4" width="1" height="1" fill="#D97757"/>
  <rect x="70" y="5" width="1" height="1" fill="#D97757"/>
  <rect x="73" y="5" width="1" height="1" fill="#D97757"/>
  <rect x="70" y="6" width="1" height="1" fill="#D97757"/>
  <rect x="74" y="6" width="1" height="1" fill="#D97757"/>
  <rect x="77" y="0" width="1" height="1" fill="#D97757"/>
  <rect x="78" y="0" width="1" height="1" fill="#D97757"/>
  <rect x="79" y="0" width="1" height="1" fill="#D97757"/>
  <rect x="76" y="1" width="1" height="1" fill="#D97757"/>
  <rect x="80" y="1" width="1" height="1" fill="#D97757"/>
  <rect x="76" y="2" width="1" height="1" fill="#D97757"/>
  <rect x="80" y="2" width="1" height="1" fill="#D97757"/>
  <rect x="76" y="3" width="1" height="1" fill="#D97757"/>
  <rect x="80" y="3" width="1" height="1" fill="#D97757"/>
  <rect x="76" y="4" width="1" height="1" fill="#D97757"/>
  <rect x="80" y="4" width="1" height="1" fill="#D97757"/>
  <rect x="76" y="5" width="1" height="1" fill="#D97757"/>
  <rect x="80" y="5" width="1" height="1" fill="#D97757"/>
  <rect x="77" y="6" width="1" height="1" fill="#D97757"/>
  <rect x="78" y="6" width="1" height="1" fill="#D97757"/>
  <rect x="79" y="6" width="1" height="1" fill="#D97757"/>
  <rect x="82" y="0" width="1" height="1" fill="#D97757"/>
  <rect x="82" y="1" width="1" height="1" fill="#D97757"/>
  <rect x="82" y="2" width="1" height="1" fill="#D97757"/>
  <rect x="82" y="3" width="1" height="1" fill="#D97757"/>
  <rect x="82" y="4" width="1" height="1" fill="#D97757"/>
  <rect x="82" y="5" width="1" height="1" fill="#D97757"/>
  <rect x="82" y="6" width="1" height="1" fill="#D97757"/>
  <rect x="83" y="6" width="1" height="1" fill="#D97757"/>
  <rect x="84" y="6" width="1" height="1" fill="#D97757"/>
  <rect x="85" y="6" width="1" height="1" fill="#D97757"/>
  <rect x="86" y="6" width="1" height="1" fill="#D97757"/>
</svg>
